<svg xmlns="http://www.w3.org/2000/svg" version="1.1" xmlns:xlink="http://www.w3.org/1999/xlink" xmlns:svgjs="http://svgjs.dev/svgjs" width="1000" height="1000"><g clip-path="url(#SvgjsClipPath1052)"><rect width="1000" height="1000" fill="#ffffff"></rect><g transform="matrix(1.953125,0,0,1.953125,0,0)"><svg xmlns="http://www.w3.org/2000/svg" version="1.1" xmlns:xlink="http://www.w3.org/1999/xlink" xmlns:svgjs="http://svgjs.dev/svgjs" width="512" height="512"><svg width="512" height="512" viewBox="0 0 135.46666 135.46667" version="1.1" id="svg5" inkscape:export-filename="omget.png" inkscape:export-xdpi="192" inkscape:export-ydpi="192" inkscape:version="1.2.2 (b0a84865, 2022-12-01)" sodipodi:docname="omget.svg" xmlns:inkscape="http://www.inkscape.org/namespaces/inkscape" xmlns:sodipodi="http://sodipodi.sourceforge.net/DTD/sodipodi-0.dtd" xmlns="http://www.w3.org/2000/svg" xmlns:svg="http://www.w3.org/2000/svg">
  <sodipodi:namedview id="namedview7" pagecolor="#505050" bordercolor="#eeeeee" borderopacity="1" inkscape:showpageshadow="0" inkscape:pageopacity="0" inkscape:pagecheckerboard="0" inkscape:deskcolor="#505050" inkscape:document-units="mm" showgrid="false" inkscape:zoom="0.29774482" inkscape:cx="167.92903" inkscape:cy="201.51484" inkscape:window-width="1194" inkscape:window-height="818" inkscape:window-x="496" inkscape:window-y="251" inkscape:window-maximized="0" inkscape:current-layer="layer1"></sodipodi:namedview>
  <defs id="defs2"><clipPath id="SvgjsClipPath1052"><rect width="1000" height="1000" x="0" y="0" rx="200" ry="200"></rect></clipPath></defs>
  <g inkscape:label="레이어 1" inkscape:groupmode="layer" id="layer1">
    <rect style="fill:#ffdc2b;fill-opacity:1;stroke:#5e3fd7;stroke-width:0;stroke-linecap:square" id="rect6392" width="135.46666" height="135.46666" x="0" y="0"></rect>
    <path id="rect477" style="fill:#260e00;fill-opacity:1;stroke:#5e3fd7;stroke-width:0;stroke-linecap:square" d="M -72.062778,76.858038 -62.206176,132.7576 220.96141,82.827514 211.1048,26.927945 Z M 19.031229,65.631676 29.136215,63.849894 c 6.333151,-1.116705 10.274819,1.661452 11.8257,8.333973 l -5.02196,0.885507 c -1.000858,-3.31731 -2.97352,-4.716754 -5.918233,-4.197522 l -5.083028,0.896275 c -1.37151,0.241834 -2.472601,0.95621 -3.303246,2.142493 -0.797417,1.138831 -1.071384,2.414193 -0.822437,3.826042 l 4.438302,25.170858 c 0.248948,1.41185 0.946156,2.53681 2.092101,3.37458 1.179171,0.79031 2.454622,1.06478 3.826132,0.82294 3.198632,-0.73037 4.594422,-2.72376 4.186753,-5.979297 l -1.771013,-10.043917 -5.083028,0.896275 -0.896275,-5.083028 15.126945,-2.667289 2.667289,15.126946 c 0.597473,3.38843 -0.02314,6.11825 -1.86234,8.18946 -1.84632,2.03085 -3.979483,3.25977 -6.399796,3.68654 l -10.104986,1.78178 c -2.74302,0.48367 -5.297402,-0.085 -7.662854,-1.70595 -2.325115,-1.62806 -3.733133,-3.83389 -4.223915,-6.61726 L 10.708024,77.518444 c -0.483669,-2.743021 0.06834,-5.273613 1.656063,-7.591614 1.62095,-2.365453 3.843444,-3.79726 6.667142,-4.295154 z m 26.084871,-4.599467 25.231932,-4.44907 0.885506,5.021958 -15.126945,2.667289 2.667289,15.126945 10.104478,-1.781692 0.896275,5.083028 -10.104478,1.781692 2.667288,15.126944 15.126945,-2.667289 0.885508,5.021956 -25.231932,4.44907 z m 30.25389,-5.334577 30.25384,-5.334577 0.88551,5.021958 -10.104959,1.781782 7.116339,40.358879 -10.044391,1.771103 -7.116354,-40.358879 -10.104478,1.781692 z m 33.58367,-5.921714 10.04443,-1.771104 5.33457,30.25389 -10.04443,1.771104 z m 6.22008,35.275849 10.04443,-1.771104 1.78178,10.104988 -10.04443,1.771104 z"></path>
    <path d="m 13.245661,33.951963 6.607535,-1.165087 q 2.690493,-0.474406 4.913927,0.798337 2.217741,1.240452 2.604929,3.436301 l 2.368677,13.433435 q 0.387187,2.19585 -1.266854,4.152297 -1.659735,1.924155 -4.350228,2.398561 l -6.607535,1.165087 Q 14.825619,58.645301 12.568313,57.411825 10.350572,56.171374 9.9576913,53.943232 L 7.5890155,40.509798 Q 7.1961338,38.281656 8.8558679,36.357501 10.555168,34.42637 13.245661,33.951963 Z m 0.950887,5.392748 2.368677,13.433435 q 0.193594,1.097925 1.285528,1.737785 1.1315,0.632883 2.476747,0.39568 1.384813,-0.24418 2.192051,-1.218915 0.846803,-0.981712 0.653209,-2.079637 L 20.804083,38.179625 q -0.199288,-1.130217 -1.325094,-1.730809 -1.091934,-0.63986 -2.476747,-0.39568 -1.345247,0.237203 -2.19205,1.218915 -0.812932,0.942444 -0.613644,2.07266 z" id="path398" style="font-size:61.4413px;font-family:Silom;-inkscape-font-specification:'Silom, Normal';fill:#260e00;fill-opacity:1;stroke:#5e3fd7;stroke-width:0;stroke-linecap:square"></path>
    <path d="m 33.130121,55.417723 -0.950887,-5.392748 6.607534,-1.165087 0.950887,5.392748 z" id="path400" style="font-size:61.4413px;font-family:Silom;-inkscape-font-specification:'Silom, Normal';fill:#260e00;fill-opacity:1;stroke:#5e3fd7;stroke-width:0;stroke-linecap:square"></path>
    <path d="m 42.65766,53.737761 -4.270451,-24.218931 1.543078,-0.272086 16.106867,8.979969 12.024614,-13.940309 3.323545,-0.58603 4.270451,24.218931 -6.60753,1.165086 -2.607822,-14.789695 -9.890667,11.466396 -13.176356,-7.399057 2.607822,14.789694 z" id="path402" style="font-size:61.4413px;font-family:Silom;-inkscape-font-specification:'Silom, Normal';fill:#260e00;fill-opacity:1;stroke:#5e3fd7;stroke-width:0;stroke-linecap:square"></path>
    <path d="m 78.575765,47.40443 -0.950887,-5.392748 6.607532,-1.165086 0.950887,5.392748 z" id="path404" style="font-size:61.4413px;font-family:Silom;-inkscape-font-specification:'Silom, Normal';fill:#260e00;fill-opacity:1;stroke:#5e3fd7;stroke-width:0;stroke-linecap:square"></path>
  </g>
</svg></svg></g></g></svg>